<mxfile host="app.diagrams.net" modified="2023-09-21T18:52:07.486Z" agent="Mozilla/5.0 (Windows NT 10.0; Win64; x64) AppleWebKit/537.36 (KHTML, like Gecko) Chrome/117.0.0.0 Safari/537.36" etag="6gfrPQy_M3tP2OE6kTVp" version="21.2.8">
  <diagram name="Page-1" id="TKSFi8WrjOVRzI-ViUHX">
    <mxGraphModel dx="4097" dy="2194" grid="0" gridSize="10" guides="1" tooltips="1" connect="1" arrows="1" fold="1" page="1" pageScale="1" pageWidth="900" pageHeight="1600" background="#FFF4C3" math="0" shadow="0">
      <root>
        <mxCell id="0" />
        <mxCell id="1" parent="0" />
        <mxCell id="ZbwSbqGi6mQ39VCojpHq-1" value="Dragon Taska&#39;" style="rounded=0;whiteSpace=wrap;html=1;fillColor=#f5f5f5;strokeColor=#666666;fontColor=#333333;" vertex="1" parent="1">
          <mxGeometry x="8" y="9" width="883" height="60" as="geometry" />
        </mxCell>
        <mxCell id="ZbwSbqGi6mQ39VCojpHq-2" value="" style="endArrow=none;html=1;rounded=0;" edge="1" parent="1">
          <mxGeometry width="50" height="50" relative="1" as="geometry">
            <mxPoint x="21" y="27.5" as="sourcePoint" />
            <mxPoint x="93" y="27.5" as="targetPoint" />
          </mxGeometry>
        </mxCell>
        <mxCell id="ZbwSbqGi6mQ39VCojpHq-3" value="" style="endArrow=none;html=1;rounded=0;" edge="1" parent="1">
          <mxGeometry width="50" height="50" relative="1" as="geometry">
            <mxPoint x="21" y="37.5" as="sourcePoint" />
            <mxPoint x="93" y="37.5" as="targetPoint" />
          </mxGeometry>
        </mxCell>
        <mxCell id="ZbwSbqGi6mQ39VCojpHq-4" value="" style="endArrow=none;html=1;rounded=0;" edge="1" parent="1">
          <mxGeometry width="50" height="50" relative="1" as="geometry">
            <mxPoint x="21" y="49.5" as="sourcePoint" />
            <mxPoint x="93" y="49.5" as="targetPoint" />
          </mxGeometry>
        </mxCell>
        <mxCell id="ZbwSbqGi6mQ39VCojpHq-5" value="- [ ] Project Deliverable 01&lt;span style=&quot;white-space: pre;&quot;&gt;	&lt;/span&gt;&amp;nbsp;&lt;br&gt;- [ ] Task 2&amp;nbsp;&lt;br&gt;- [ ] Task 3&lt;br&gt;- [ ] Task 4&lt;br&gt;- [ ] Task 5" style="rounded=0;whiteSpace=wrap;html=1;fillColor=#f5f5f5;fontColor=#333333;strokeColor=none;align=left;strokeWidth=0;" vertex="1" parent="1">
          <mxGeometry x="8" y="231" width="441" height="130" as="geometry" />
        </mxCell>
        <mxCell id="ZbwSbqGi6mQ39VCojpHq-8" value="" style="ellipse;whiteSpace=wrap;html=1;aspect=fixed;fillColor=#dae8fc;strokeColor=#6c8ebf;" vertex="1" parent="1">
          <mxGeometry x="787" y="1494" width="80" height="80" as="geometry" />
        </mxCell>
        <mxCell id="ZbwSbqGi6mQ39VCojpHq-6" value="" style="endArrow=none;html=1;rounded=0;" edge="1" parent="1">
          <mxGeometry width="50" height="50" relative="1" as="geometry">
            <mxPoint x="826.5" y="1554.5" as="sourcePoint" />
            <mxPoint x="826.5" y="1513.5" as="targetPoint" />
          </mxGeometry>
        </mxCell>
        <mxCell id="ZbwSbqGi6mQ39VCojpHq-7" value="" style="endArrow=none;html=1;rounded=0;" edge="1" parent="1">
          <mxGeometry width="50" height="50" relative="1" as="geometry">
            <mxPoint x="805.5" y="1533.5" as="sourcePoint" />
            <mxPoint x="848.5" y="1533.5" as="targetPoint" />
          </mxGeometry>
        </mxCell>
        <mxCell id="ZbwSbqGi6mQ39VCojpHq-9" value="" style="ellipse;whiteSpace=wrap;html=1;aspect=fixed;fillColor=#dae8fc;strokeColor=#6c8ebf;" vertex="1" parent="1">
          <mxGeometry x="679" y="1494" width="80" height="80" as="geometry" />
        </mxCell>
        <mxCell id="ZbwSbqGi6mQ39VCojpHq-13" value="" style="shape=datastore;whiteSpace=wrap;html=1;" vertex="1" parent="1">
          <mxGeometry x="696" y="1512.5" width="46" height="43" as="geometry" />
        </mxCell>
        <mxCell id="ZbwSbqGi6mQ39VCojpHq-14" value="Monday 9/25/23" style="rounded=0;whiteSpace=wrap;html=1;fillColor=#f8cecc;strokeColor=#b85450;" vertex="1" parent="1">
          <mxGeometry x="8" y="88" width="882" height="52" as="geometry" />
        </mxCell>
        <mxCell id="ZbwSbqGi6mQ39VCojpHq-16" value="Finish the PD01 for CS445&lt;span style=&quot;white-space: pre;&quot;&gt;	&lt;span style=&quot;white-space: pre;&quot;&gt;	&lt;/span&gt;&lt;span style=&quot;white-space: pre;&quot;&gt;	&lt;/span&gt; &lt;span style=&quot;white-space: pre;&quot;&gt;	&lt;/span&gt;&lt;span style=&quot;white-space: pre;&quot;&gt;	&lt;/span&gt;&lt;span style=&quot;white-space: pre;&quot;&gt;	&lt;/span&gt;S&lt;/span&gt;chool Work&amp;nbsp;&lt;br&gt;Desc for task 2&lt;span style=&quot;white-space: pre;&quot;&gt;	&lt;/span&gt;&lt;span style=&quot;white-space: pre;&quot;&gt;	&lt;/span&gt;&lt;span style=&quot;white-space: pre;&quot;&gt;	&lt;/span&gt;&lt;span style=&quot;white-space: pre;&quot;&gt;	&lt;/span&gt;&lt;span style=&quot;white-space: pre;&quot;&gt;	&lt;/span&gt;&lt;span style=&quot;white-space: pre;&quot;&gt;	&lt;/span&gt;&lt;span style=&quot;white-space: pre;&quot;&gt;	&lt;/span&gt;&lt;span style=&quot;white-space: pre;&quot;&gt;	&lt;/span&gt;Misc&lt;br&gt;Desc for task 3&lt;span style=&quot;white-space: pre;&quot;&gt;	&lt;/span&gt;&lt;span style=&quot;white-space: pre;&quot;&gt;	&lt;/span&gt;&lt;span style=&quot;white-space: pre;&quot;&gt;	&lt;/span&gt;&lt;span style=&quot;white-space: pre;&quot;&gt;	&lt;/span&gt;&lt;span style=&quot;white-space: pre;&quot;&gt;	&lt;/span&gt;&lt;span style=&quot;white-space: pre;&quot;&gt;	&lt;/span&gt;&lt;span style=&quot;white-space: pre;&quot;&gt;	&lt;/span&gt;&lt;span style=&quot;white-space: pre;&quot;&gt;	&lt;/span&gt;Misc&lt;br&gt;Desc for task 4&lt;span style=&quot;white-space: pre;&quot;&gt;	&lt;/span&gt;&lt;span style=&quot;white-space: pre;&quot;&gt;	&lt;/span&gt;&lt;span style=&quot;white-space: pre;&quot;&gt;	&lt;/span&gt;&lt;span style=&quot;white-space: pre;&quot;&gt;	&lt;/span&gt;&lt;span style=&quot;white-space: pre;&quot;&gt;	&lt;/span&gt;&lt;span style=&quot;white-space: pre;&quot;&gt;	&lt;/span&gt;&lt;span style=&quot;white-space: pre;&quot;&gt;	&lt;/span&gt;&lt;span style=&quot;white-space: pre;&quot;&gt;	&lt;/span&gt;Misc&lt;br&gt;Desc for task 5&lt;span style=&quot;white-space: pre;&quot;&gt;	&lt;/span&gt;&lt;span style=&quot;white-space: pre;&quot;&gt;	&lt;/span&gt;&lt;span style=&quot;white-space: pre;&quot;&gt;	&lt;/span&gt;&lt;span style=&quot;white-space: pre;&quot;&gt;	&lt;/span&gt;&lt;span style=&quot;white-space: pre;&quot;&gt;	&lt;/span&gt;&lt;span style=&quot;white-space: pre;&quot;&gt;	&lt;/span&gt;&lt;span style=&quot;white-space: pre;&quot;&gt;	&lt;/span&gt;&lt;span style=&quot;white-space: pre;&quot;&gt;	&lt;/span&gt;Misc" style="rounded=0;whiteSpace=wrap;html=1;fillColor=#f5f5f5;fontColor=#333333;strokeColor=none;align=left;strokeWidth=0;" vertex="1" parent="1">
          <mxGeometry x="449" y="231" width="439" height="130" as="geometry" />
        </mxCell>
        <mxCell id="ZbwSbqGi6mQ39VCojpHq-17" value="Task:&lt;span style=&quot;white-space: pre;&quot;&gt;	&lt;/span&gt;&lt;span style=&quot;white-space: pre;&quot;&gt;	&lt;/span&gt;&lt;span style=&quot;white-space: pre;&quot;&gt;	&lt;/span&gt;&lt;span style=&quot;white-space: pre;&quot;&gt;	&lt;/span&gt;&lt;span style=&quot;white-space: pre;&quot;&gt;	&lt;/span&gt;&lt;span style=&quot;white-space: pre;&quot;&gt;	&lt;/span&gt;&lt;span style=&quot;white-space: pre;&quot;&gt;	&lt;/span&gt;&lt;span style=&quot;white-space: pre;&quot;&gt;	&lt;/span&gt;&lt;span style=&quot;white-space: pre;&quot;&gt;	&lt;/span&gt;&lt;span style=&quot;white-space: pre;&quot;&gt;	&lt;/span&gt;&lt;span style=&quot;white-space: pre;&quot;&gt;	&lt;/span&gt;&amp;nbsp; &amp;nbsp; &amp;nbsp; &amp;nbsp;&lt;span style=&quot;white-space: pre;&quot;&gt;	&lt;/span&gt;&lt;span style=&quot;white-space: pre;&quot;&gt;	&lt;/span&gt;&lt;span style=&quot;white-space: pre;&quot;&gt;	&lt;/span&gt;&lt;span style=&quot;white-space: pre;&quot;&gt;	&lt;/span&gt;&amp;nbsp; &amp;nbsp; Description:&lt;span style=&quot;white-space: pre;&quot;&gt;	&lt;/span&gt;&lt;span style=&quot;white-space: pre;&quot;&gt;	&lt;/span&gt;&lt;span style=&quot;white-space: pre;&quot;&gt;	&lt;/span&gt;&lt;span style=&quot;white-space: pre;&quot;&gt;	&lt;/span&gt;&lt;span style=&quot;white-space: pre;&quot;&gt;	&lt;/span&gt;&lt;span style=&quot;white-space: pre;&quot;&gt;	&lt;/span&gt;&lt;span style=&quot;white-space: pre;&quot;&gt;	&lt;/span&gt;&lt;span style=&quot;white-space: pre;&quot;&gt;	&lt;/span&gt;&lt;span style=&quot;white-space: pre;&quot;&gt;	&lt;/span&gt;&amp;nbsp; &amp;nbsp; Category:" style="rounded=0;whiteSpace=wrap;html=1;align=left;fillColor=#f5f5f5;fontColor=#333333;strokeColor=default;" vertex="1" parent="1">
          <mxGeometry x="9" y="171" width="881" height="60" as="geometry" />
        </mxCell>
        <mxCell id="ZbwSbqGi6mQ39VCojpHq-18" value="" style="endArrow=none;html=1;rounded=0;exitX=0;exitY=0;exitDx=0;exitDy=0;" edge="1" parent="1" source="ZbwSbqGi6mQ39VCojpHq-17">
          <mxGeometry width="50" height="50" relative="1" as="geometry">
            <mxPoint x="-41" y="411" as="sourcePoint" />
            <mxPoint x="9" y="361" as="targetPoint" />
          </mxGeometry>
        </mxCell>
        <mxCell id="ZbwSbqGi6mQ39VCojpHq-23" value="" style="endArrow=none;html=1;rounded=0;entryX=1;entryY=1;entryDx=0;entryDy=0;exitX=1;exitY=0;exitDx=0;exitDy=0;" edge="1" parent="1" source="ZbwSbqGi6mQ39VCojpHq-17" target="ZbwSbqGi6mQ39VCojpHq-16">
          <mxGeometry width="50" height="50" relative="1" as="geometry">
            <mxPoint x="396" y="495" as="sourcePoint" />
            <mxPoint x="446" y="445" as="targetPoint" />
          </mxGeometry>
        </mxCell>
        <mxCell id="ZbwSbqGi6mQ39VCojpHq-24" value="" style="endArrow=none;html=1;rounded=0;entryX=1;entryY=1;entryDx=0;entryDy=0;exitX=0;exitY=1;exitDx=0;exitDy=0;" edge="1" parent="1" source="ZbwSbqGi6mQ39VCojpHq-5" target="ZbwSbqGi6mQ39VCojpHq-16">
          <mxGeometry width="50" height="50" relative="1" as="geometry">
            <mxPoint x="561" y="536" as="sourcePoint" />
            <mxPoint x="611" y="486" as="targetPoint" />
          </mxGeometry>
        </mxCell>
        <mxCell id="ZbwSbqGi6mQ39VCojpHq-25" value="" style="endArrow=none;html=1;rounded=0;entryX=1;entryY=0;entryDx=0;entryDy=0;exitX=0;exitY=0;exitDx=0;exitDy=0;" edge="1" parent="1" source="ZbwSbqGi6mQ39VCojpHq-17" target="ZbwSbqGi6mQ39VCojpHq-17">
          <mxGeometry width="50" height="50" relative="1" as="geometry">
            <mxPoint x="428" y="502" as="sourcePoint" />
            <mxPoint x="478" y="452" as="targetPoint" />
          </mxGeometry>
        </mxCell>
        <mxCell id="ZbwSbqGi6mQ39VCojpHq-26" value="- [ ] Task 1&lt;span style=&quot;white-space: pre;&quot;&gt;	&lt;/span&gt;&amp;nbsp;&lt;br&gt;- [ ] Task 2&amp;nbsp;&lt;br&gt;- [ ] Task 3&lt;br&gt;- [ ] Task 4&lt;br&gt;- [ ] Task 5" style="rounded=0;whiteSpace=wrap;html=1;fillColor=#f5f5f5;fontColor=#333333;strokeColor=none;align=left;strokeWidth=0;" vertex="1" parent="1">
          <mxGeometry x="8" y="530" width="441" height="130" as="geometry" />
        </mxCell>
        <mxCell id="ZbwSbqGi6mQ39VCojpHq-27" value="Tuesday 9/26/23" style="rounded=0;whiteSpace=wrap;html=1;fillColor=#f8cecc;strokeColor=#b85450;" vertex="1" parent="1">
          <mxGeometry x="8" y="387" width="882" height="52" as="geometry" />
        </mxCell>
        <mxCell id="ZbwSbqGi6mQ39VCojpHq-28" value="Desc for task 1&lt;span style=&quot;white-space: pre;&quot;&gt;	&lt;span style=&quot;white-space: pre;&quot;&gt;	&lt;/span&gt;&lt;/span&gt;&lt;span style=&quot;white-space: pre;&quot;&gt;	&lt;span style=&quot;white-space: pre;&quot;&gt;	&lt;/span&gt;&lt;span style=&quot;white-space: pre;&quot;&gt;	&lt;/span&gt; &lt;span style=&quot;white-space: pre;&quot;&gt;	&lt;/span&gt;&lt;span style=&quot;white-space: pre;&quot;&gt;	&lt;/span&gt;&lt;span style=&quot;white-space: pre;&quot;&gt;	&lt;/span&gt;M&lt;/span&gt;isc&amp;nbsp;&lt;br&gt;Desc for task 2&lt;span style=&quot;white-space: pre;&quot;&gt;	&lt;/span&gt;&lt;span style=&quot;white-space: pre;&quot;&gt;	&lt;/span&gt;&lt;span style=&quot;white-space: pre;&quot;&gt;	&lt;/span&gt;&lt;span style=&quot;white-space: pre;&quot;&gt;	&lt;/span&gt;&lt;span style=&quot;white-space: pre;&quot;&gt;	&lt;/span&gt;&lt;span style=&quot;white-space: pre;&quot;&gt;	&lt;/span&gt;&lt;span style=&quot;white-space: pre;&quot;&gt;	&lt;/span&gt;&lt;span style=&quot;white-space: pre;&quot;&gt;	&lt;/span&gt;Misc&lt;br&gt;Desc for task 3&lt;span style=&quot;white-space: pre;&quot;&gt;	&lt;/span&gt;&lt;span style=&quot;white-space: pre;&quot;&gt;	&lt;/span&gt;&lt;span style=&quot;white-space: pre;&quot;&gt;	&lt;/span&gt;&lt;span style=&quot;white-space: pre;&quot;&gt;	&lt;/span&gt;&lt;span style=&quot;white-space: pre;&quot;&gt;	&lt;/span&gt;&lt;span style=&quot;white-space: pre;&quot;&gt;	&lt;/span&gt;&lt;span style=&quot;white-space: pre;&quot;&gt;	&lt;/span&gt;&lt;span style=&quot;white-space: pre;&quot;&gt;	&lt;/span&gt;Misc&lt;br&gt;Desc for task 4&lt;span style=&quot;white-space: pre;&quot;&gt;	&lt;/span&gt;&lt;span style=&quot;white-space: pre;&quot;&gt;	&lt;/span&gt;&lt;span style=&quot;white-space: pre;&quot;&gt;	&lt;/span&gt;&lt;span style=&quot;white-space: pre;&quot;&gt;	&lt;/span&gt;&lt;span style=&quot;white-space: pre;&quot;&gt;	&lt;/span&gt;&lt;span style=&quot;white-space: pre;&quot;&gt;	&lt;/span&gt;&lt;span style=&quot;white-space: pre;&quot;&gt;	&lt;/span&gt;&lt;span style=&quot;white-space: pre;&quot;&gt;	&lt;/span&gt;Misc&lt;br&gt;Desc for task 5&lt;span style=&quot;white-space: pre;&quot;&gt;	&lt;/span&gt;&lt;span style=&quot;white-space: pre;&quot;&gt;	&lt;/span&gt;&lt;span style=&quot;white-space: pre;&quot;&gt;	&lt;/span&gt;&lt;span style=&quot;white-space: pre;&quot;&gt;	&lt;/span&gt;&lt;span style=&quot;white-space: pre;&quot;&gt;	&lt;/span&gt;&lt;span style=&quot;white-space: pre;&quot;&gt;	&lt;/span&gt;&lt;span style=&quot;white-space: pre;&quot;&gt;	&lt;/span&gt;&lt;span style=&quot;white-space: pre;&quot;&gt;	&lt;/span&gt;Misc" style="rounded=0;whiteSpace=wrap;html=1;fillColor=#f5f5f5;fontColor=#333333;strokeColor=none;align=left;strokeWidth=0;" vertex="1" parent="1">
          <mxGeometry x="449" y="530" width="439" height="130" as="geometry" />
        </mxCell>
        <mxCell id="ZbwSbqGi6mQ39VCojpHq-29" value="Task:&lt;span style=&quot;white-space: pre;&quot;&gt;	&lt;/span&gt;&lt;span style=&quot;white-space: pre;&quot;&gt;	&lt;/span&gt;&lt;span style=&quot;white-space: pre;&quot;&gt;	&lt;/span&gt;&lt;span style=&quot;white-space: pre;&quot;&gt;	&lt;/span&gt;&lt;span style=&quot;white-space: pre;&quot;&gt;	&lt;/span&gt;&lt;span style=&quot;white-space: pre;&quot;&gt;	&lt;/span&gt;&lt;span style=&quot;white-space: pre;&quot;&gt;	&lt;/span&gt;&lt;span style=&quot;white-space: pre;&quot;&gt;	&lt;/span&gt;&lt;span style=&quot;white-space: pre;&quot;&gt;	&lt;/span&gt;&lt;span style=&quot;white-space: pre;&quot;&gt;	&lt;/span&gt;&lt;span style=&quot;white-space: pre;&quot;&gt;	&lt;/span&gt;&amp;nbsp; &amp;nbsp; &amp;nbsp; &amp;nbsp;&lt;span style=&quot;white-space: pre;&quot;&gt;	&lt;/span&gt;&lt;span style=&quot;white-space: pre;&quot;&gt;	&lt;/span&gt;&lt;span style=&quot;white-space: pre;&quot;&gt;	&lt;/span&gt;&lt;span style=&quot;white-space: pre;&quot;&gt;	&lt;/span&gt;&amp;nbsp; &amp;nbsp; Description:&lt;span style=&quot;white-space: pre;&quot;&gt;	&lt;/span&gt;&lt;span style=&quot;white-space: pre;&quot;&gt;	&lt;/span&gt;&lt;span style=&quot;white-space: pre;&quot;&gt;	&lt;/span&gt;&lt;span style=&quot;white-space: pre;&quot;&gt;	&lt;/span&gt;&lt;span style=&quot;white-space: pre;&quot;&gt;	&lt;/span&gt;&lt;span style=&quot;white-space: pre;&quot;&gt;	&lt;/span&gt;&lt;span style=&quot;white-space: pre;&quot;&gt;	&lt;/span&gt;&lt;span style=&quot;white-space: pre;&quot;&gt;	&lt;/span&gt;&lt;span style=&quot;white-space: pre;&quot;&gt;	&lt;/span&gt;&amp;nbsp; &amp;nbsp; Category:" style="rounded=0;whiteSpace=wrap;html=1;align=left;fillColor=#f5f5f5;fontColor=#333333;strokeColor=default;" vertex="1" parent="1">
          <mxGeometry x="9" y="470" width="881" height="60" as="geometry" />
        </mxCell>
        <mxCell id="ZbwSbqGi6mQ39VCojpHq-30" value="" style="endArrow=none;html=1;rounded=0;exitX=0;exitY=0;exitDx=0;exitDy=0;" edge="1" parent="1" source="ZbwSbqGi6mQ39VCojpHq-29">
          <mxGeometry width="50" height="50" relative="1" as="geometry">
            <mxPoint x="-41" y="710" as="sourcePoint" />
            <mxPoint x="9" y="660" as="targetPoint" />
          </mxGeometry>
        </mxCell>
        <mxCell id="ZbwSbqGi6mQ39VCojpHq-31" value="" style="endArrow=none;html=1;rounded=0;entryX=1;entryY=1;entryDx=0;entryDy=0;exitX=1;exitY=0;exitDx=0;exitDy=0;" edge="1" parent="1" source="ZbwSbqGi6mQ39VCojpHq-29" target="ZbwSbqGi6mQ39VCojpHq-28">
          <mxGeometry width="50" height="50" relative="1" as="geometry">
            <mxPoint x="396" y="794" as="sourcePoint" />
            <mxPoint x="446" y="744" as="targetPoint" />
          </mxGeometry>
        </mxCell>
        <mxCell id="ZbwSbqGi6mQ39VCojpHq-32" value="" style="endArrow=none;html=1;rounded=0;entryX=1;entryY=1;entryDx=0;entryDy=0;exitX=0;exitY=1;exitDx=0;exitDy=0;" edge="1" parent="1" source="ZbwSbqGi6mQ39VCojpHq-26" target="ZbwSbqGi6mQ39VCojpHq-28">
          <mxGeometry width="50" height="50" relative="1" as="geometry">
            <mxPoint x="561" y="835" as="sourcePoint" />
            <mxPoint x="611" y="785" as="targetPoint" />
          </mxGeometry>
        </mxCell>
        <mxCell id="ZbwSbqGi6mQ39VCojpHq-33" value="" style="endArrow=none;html=1;rounded=0;entryX=1;entryY=0;entryDx=0;entryDy=0;exitX=0;exitY=0;exitDx=0;exitDy=0;" edge="1" parent="1" source="ZbwSbqGi6mQ39VCojpHq-29" target="ZbwSbqGi6mQ39VCojpHq-29">
          <mxGeometry width="50" height="50" relative="1" as="geometry">
            <mxPoint x="428" y="801" as="sourcePoint" />
            <mxPoint x="478" y="751" as="targetPoint" />
          </mxGeometry>
        </mxCell>
        <mxCell id="ZbwSbqGi6mQ39VCojpHq-34" value="- [ ] Task 1&lt;span style=&quot;white-space: pre;&quot;&gt;	&lt;/span&gt;&amp;nbsp;&lt;br&gt;- [ ] Task 2&amp;nbsp;&lt;br&gt;- [ ] Task 3&lt;br&gt;- [ ] Task 4&lt;br&gt;- [ ] Task 5" style="rounded=0;whiteSpace=wrap;html=1;fillColor=#f5f5f5;fontColor=#333333;strokeColor=none;align=left;strokeWidth=0;" vertex="1" parent="1">
          <mxGeometry x="8" y="842" width="441" height="130" as="geometry" />
        </mxCell>
        <mxCell id="ZbwSbqGi6mQ39VCojpHq-35" value="Wednesday 9/27/23" style="rounded=0;whiteSpace=wrap;html=1;fillColor=#f8cecc;strokeColor=#b85450;" vertex="1" parent="1">
          <mxGeometry x="8" y="699" width="882" height="52" as="geometry" />
        </mxCell>
        <mxCell id="ZbwSbqGi6mQ39VCojpHq-36" value="Desc for task 1&lt;span style=&quot;white-space: pre;&quot;&gt;	&lt;span style=&quot;white-space: pre;&quot;&gt;	&lt;/span&gt;&lt;/span&gt;&lt;span style=&quot;white-space: pre;&quot;&gt;	&lt;span style=&quot;white-space: pre;&quot;&gt;	&lt;/span&gt;&lt;span style=&quot;white-space: pre;&quot;&gt;	&lt;/span&gt; &lt;span style=&quot;white-space: pre;&quot;&gt;	&lt;/span&gt;&lt;span style=&quot;white-space: pre;&quot;&gt;	&lt;/span&gt;&lt;span style=&quot;white-space: pre;&quot;&gt;	&lt;/span&gt;M&lt;/span&gt;isc&amp;nbsp;&lt;br&gt;Desc for task 2&lt;span style=&quot;white-space: pre;&quot;&gt;	&lt;/span&gt;&lt;span style=&quot;white-space: pre;&quot;&gt;	&lt;/span&gt;&lt;span style=&quot;white-space: pre;&quot;&gt;	&lt;/span&gt;&lt;span style=&quot;white-space: pre;&quot;&gt;	&lt;/span&gt;&lt;span style=&quot;white-space: pre;&quot;&gt;	&lt;/span&gt;&lt;span style=&quot;white-space: pre;&quot;&gt;	&lt;/span&gt;&lt;span style=&quot;white-space: pre;&quot;&gt;	&lt;/span&gt;&lt;span style=&quot;white-space: pre;&quot;&gt;	&lt;/span&gt;Misc&lt;br&gt;Desc for task 3&lt;span style=&quot;white-space: pre;&quot;&gt;	&lt;/span&gt;&lt;span style=&quot;white-space: pre;&quot;&gt;	&lt;/span&gt;&lt;span style=&quot;white-space: pre;&quot;&gt;	&lt;/span&gt;&lt;span style=&quot;white-space: pre;&quot;&gt;	&lt;/span&gt;&lt;span style=&quot;white-space: pre;&quot;&gt;	&lt;/span&gt;&lt;span style=&quot;white-space: pre;&quot;&gt;	&lt;/span&gt;&lt;span style=&quot;white-space: pre;&quot;&gt;	&lt;/span&gt;&lt;span style=&quot;white-space: pre;&quot;&gt;	&lt;/span&gt;Misc&lt;br&gt;Desc for task 4&lt;span style=&quot;white-space: pre;&quot;&gt;	&lt;/span&gt;&lt;span style=&quot;white-space: pre;&quot;&gt;	&lt;/span&gt;&lt;span style=&quot;white-space: pre;&quot;&gt;	&lt;/span&gt;&lt;span style=&quot;white-space: pre;&quot;&gt;	&lt;/span&gt;&lt;span style=&quot;white-space: pre;&quot;&gt;	&lt;/span&gt;&lt;span style=&quot;white-space: pre;&quot;&gt;	&lt;/span&gt;&lt;span style=&quot;white-space: pre;&quot;&gt;	&lt;/span&gt;&lt;span style=&quot;white-space: pre;&quot;&gt;	&lt;/span&gt;Misc&lt;br&gt;Desc for task 5&lt;span style=&quot;white-space: pre;&quot;&gt;	&lt;/span&gt;&lt;span style=&quot;white-space: pre;&quot;&gt;	&lt;/span&gt;&lt;span style=&quot;white-space: pre;&quot;&gt;	&lt;/span&gt;&lt;span style=&quot;white-space: pre;&quot;&gt;	&lt;/span&gt;&lt;span style=&quot;white-space: pre;&quot;&gt;	&lt;/span&gt;&lt;span style=&quot;white-space: pre;&quot;&gt;	&lt;/span&gt;&lt;span style=&quot;white-space: pre;&quot;&gt;	&lt;/span&gt;&lt;span style=&quot;white-space: pre;&quot;&gt;	&lt;/span&gt;Misc" style="rounded=0;whiteSpace=wrap;html=1;fillColor=#f5f5f5;fontColor=#333333;strokeColor=none;align=left;strokeWidth=0;" vertex="1" parent="1">
          <mxGeometry x="449" y="842" width="439" height="130" as="geometry" />
        </mxCell>
        <mxCell id="ZbwSbqGi6mQ39VCojpHq-37" value="Task:&lt;span style=&quot;white-space: pre;&quot;&gt;	&lt;/span&gt;&lt;span style=&quot;white-space: pre;&quot;&gt;	&lt;/span&gt;&lt;span style=&quot;white-space: pre;&quot;&gt;	&lt;/span&gt;&lt;span style=&quot;white-space: pre;&quot;&gt;	&lt;/span&gt;&lt;span style=&quot;white-space: pre;&quot;&gt;	&lt;/span&gt;&lt;span style=&quot;white-space: pre;&quot;&gt;	&lt;/span&gt;&lt;span style=&quot;white-space: pre;&quot;&gt;	&lt;/span&gt;&lt;span style=&quot;white-space: pre;&quot;&gt;	&lt;/span&gt;&lt;span style=&quot;white-space: pre;&quot;&gt;	&lt;/span&gt;&lt;span style=&quot;white-space: pre;&quot;&gt;	&lt;/span&gt;&lt;span style=&quot;white-space: pre;&quot;&gt;	&lt;/span&gt;&amp;nbsp; &amp;nbsp; &amp;nbsp; &amp;nbsp;&lt;span style=&quot;white-space: pre;&quot;&gt;	&lt;/span&gt;&lt;span style=&quot;white-space: pre;&quot;&gt;	&lt;/span&gt;&lt;span style=&quot;white-space: pre;&quot;&gt;	&lt;/span&gt;&lt;span style=&quot;white-space: pre;&quot;&gt;	&lt;/span&gt;&amp;nbsp; &amp;nbsp; Description:&lt;span style=&quot;white-space: pre;&quot;&gt;	&lt;/span&gt;&lt;span style=&quot;white-space: pre;&quot;&gt;	&lt;/span&gt;&lt;span style=&quot;white-space: pre;&quot;&gt;	&lt;/span&gt;&lt;span style=&quot;white-space: pre;&quot;&gt;	&lt;/span&gt;&lt;span style=&quot;white-space: pre;&quot;&gt;	&lt;/span&gt;&lt;span style=&quot;white-space: pre;&quot;&gt;	&lt;/span&gt;&lt;span style=&quot;white-space: pre;&quot;&gt;	&lt;/span&gt;&lt;span style=&quot;white-space: pre;&quot;&gt;	&lt;/span&gt;&lt;span style=&quot;white-space: pre;&quot;&gt;	&lt;/span&gt;&amp;nbsp; &amp;nbsp; Category:" style="rounded=0;whiteSpace=wrap;html=1;align=left;fillColor=#f5f5f5;fontColor=#333333;strokeColor=default;" vertex="1" parent="1">
          <mxGeometry x="9" y="782" width="881" height="60" as="geometry" />
        </mxCell>
        <mxCell id="ZbwSbqGi6mQ39VCojpHq-38" value="" style="endArrow=none;html=1;rounded=0;exitX=0;exitY=0;exitDx=0;exitDy=0;" edge="1" parent="1" source="ZbwSbqGi6mQ39VCojpHq-37">
          <mxGeometry width="50" height="50" relative="1" as="geometry">
            <mxPoint x="-41" y="1022" as="sourcePoint" />
            <mxPoint x="9" y="972" as="targetPoint" />
          </mxGeometry>
        </mxCell>
        <mxCell id="ZbwSbqGi6mQ39VCojpHq-39" value="" style="endArrow=none;html=1;rounded=0;entryX=1;entryY=1;entryDx=0;entryDy=0;exitX=1;exitY=0;exitDx=0;exitDy=0;" edge="1" parent="1" source="ZbwSbqGi6mQ39VCojpHq-37" target="ZbwSbqGi6mQ39VCojpHq-36">
          <mxGeometry width="50" height="50" relative="1" as="geometry">
            <mxPoint x="396" y="1106" as="sourcePoint" />
            <mxPoint x="446" y="1056" as="targetPoint" />
          </mxGeometry>
        </mxCell>
        <mxCell id="ZbwSbqGi6mQ39VCojpHq-40" value="" style="endArrow=none;html=1;rounded=0;entryX=1;entryY=1;entryDx=0;entryDy=0;exitX=0;exitY=1;exitDx=0;exitDy=0;" edge="1" parent="1" source="ZbwSbqGi6mQ39VCojpHq-34" target="ZbwSbqGi6mQ39VCojpHq-36">
          <mxGeometry width="50" height="50" relative="1" as="geometry">
            <mxPoint x="561" y="1147" as="sourcePoint" />
            <mxPoint x="611" y="1097" as="targetPoint" />
          </mxGeometry>
        </mxCell>
        <mxCell id="ZbwSbqGi6mQ39VCojpHq-41" value="" style="endArrow=none;html=1;rounded=0;entryX=1;entryY=0;entryDx=0;entryDy=0;exitX=0;exitY=0;exitDx=0;exitDy=0;" edge="1" parent="1" source="ZbwSbqGi6mQ39VCojpHq-37" target="ZbwSbqGi6mQ39VCojpHq-37">
          <mxGeometry width="50" height="50" relative="1" as="geometry">
            <mxPoint x="428" y="1113" as="sourcePoint" />
            <mxPoint x="478" y="1063" as="targetPoint" />
          </mxGeometry>
        </mxCell>
        <mxCell id="ZbwSbqGi6mQ39VCojpHq-42" value="- [ ] Task 1&lt;span style=&quot;white-space: pre;&quot;&gt;	&lt;/span&gt;&amp;nbsp;&lt;br&gt;- [ ] Task 2&amp;nbsp;&lt;br&gt;- [ ] Task 3&lt;br&gt;- [ ] Task 4&lt;br&gt;- [ ] Task 5" style="rounded=0;whiteSpace=wrap;html=1;fillColor=#f5f5f5;fontColor=#333333;strokeColor=none;align=left;strokeWidth=0;" vertex="1" parent="1">
          <mxGeometry x="8" y="1147" width="441" height="130" as="geometry" />
        </mxCell>
        <mxCell id="ZbwSbqGi6mQ39VCojpHq-43" value="Thursday 9/27/23" style="rounded=0;whiteSpace=wrap;html=1;fillColor=#f8cecc;strokeColor=#b85450;" vertex="1" parent="1">
          <mxGeometry x="8" y="1004" width="882" height="52" as="geometry" />
        </mxCell>
        <mxCell id="ZbwSbqGi6mQ39VCojpHq-44" value="Desc for task 1&lt;span style=&quot;white-space: pre;&quot;&gt;	&lt;span style=&quot;white-space: pre;&quot;&gt;	&lt;/span&gt;&lt;/span&gt;&lt;span style=&quot;white-space: pre;&quot;&gt;	&lt;span style=&quot;white-space: pre;&quot;&gt;	&lt;/span&gt;&lt;span style=&quot;white-space: pre;&quot;&gt;	&lt;/span&gt; &lt;span style=&quot;white-space: pre;&quot;&gt;	&lt;/span&gt;&lt;span style=&quot;white-space: pre;&quot;&gt;	&lt;/span&gt;&lt;span style=&quot;white-space: pre;&quot;&gt;	&lt;/span&gt;M&lt;/span&gt;isc&amp;nbsp;&lt;br&gt;Desc for task 2&lt;span style=&quot;white-space: pre;&quot;&gt;	&lt;/span&gt;&lt;span style=&quot;white-space: pre;&quot;&gt;	&lt;/span&gt;&lt;span style=&quot;white-space: pre;&quot;&gt;	&lt;/span&gt;&lt;span style=&quot;white-space: pre;&quot;&gt;	&lt;/span&gt;&lt;span style=&quot;white-space: pre;&quot;&gt;	&lt;/span&gt;&lt;span style=&quot;white-space: pre;&quot;&gt;	&lt;/span&gt;&lt;span style=&quot;white-space: pre;&quot;&gt;	&lt;/span&gt;&lt;span style=&quot;white-space: pre;&quot;&gt;	&lt;/span&gt;Misc&lt;br&gt;Desc for task 3&lt;span style=&quot;white-space: pre;&quot;&gt;	&lt;/span&gt;&lt;span style=&quot;white-space: pre;&quot;&gt;	&lt;/span&gt;&lt;span style=&quot;white-space: pre;&quot;&gt;	&lt;/span&gt;&lt;span style=&quot;white-space: pre;&quot;&gt;	&lt;/span&gt;&lt;span style=&quot;white-space: pre;&quot;&gt;	&lt;/span&gt;&lt;span style=&quot;white-space: pre;&quot;&gt;	&lt;/span&gt;&lt;span style=&quot;white-space: pre;&quot;&gt;	&lt;/span&gt;&lt;span style=&quot;white-space: pre;&quot;&gt;	&lt;/span&gt;Misc&lt;br&gt;Desc for task 4&lt;span style=&quot;white-space: pre;&quot;&gt;	&lt;/span&gt;&lt;span style=&quot;white-space: pre;&quot;&gt;	&lt;/span&gt;&lt;span style=&quot;white-space: pre;&quot;&gt;	&lt;/span&gt;&lt;span style=&quot;white-space: pre;&quot;&gt;	&lt;/span&gt;&lt;span style=&quot;white-space: pre;&quot;&gt;	&lt;/span&gt;&lt;span style=&quot;white-space: pre;&quot;&gt;	&lt;/span&gt;&lt;span style=&quot;white-space: pre;&quot;&gt;	&lt;/span&gt;&lt;span style=&quot;white-space: pre;&quot;&gt;	&lt;/span&gt;Misc&lt;br&gt;Desc for task 5&lt;span style=&quot;white-space: pre;&quot;&gt;	&lt;/span&gt;&lt;span style=&quot;white-space: pre;&quot;&gt;	&lt;/span&gt;&lt;span style=&quot;white-space: pre;&quot;&gt;	&lt;/span&gt;&lt;span style=&quot;white-space: pre;&quot;&gt;	&lt;/span&gt;&lt;span style=&quot;white-space: pre;&quot;&gt;	&lt;/span&gt;&lt;span style=&quot;white-space: pre;&quot;&gt;	&lt;/span&gt;&lt;span style=&quot;white-space: pre;&quot;&gt;	&lt;/span&gt;&lt;span style=&quot;white-space: pre;&quot;&gt;	&lt;/span&gt;Misc" style="rounded=0;whiteSpace=wrap;html=1;fillColor=#f5f5f5;fontColor=#333333;strokeColor=none;align=left;strokeWidth=0;" vertex="1" parent="1">
          <mxGeometry x="449" y="1147" width="439" height="130" as="geometry" />
        </mxCell>
        <mxCell id="ZbwSbqGi6mQ39VCojpHq-45" value="Task:&lt;span style=&quot;white-space: pre;&quot;&gt;	&lt;/span&gt;&lt;span style=&quot;white-space: pre;&quot;&gt;	&lt;/span&gt;&lt;span style=&quot;white-space: pre;&quot;&gt;	&lt;/span&gt;&lt;span style=&quot;white-space: pre;&quot;&gt;	&lt;/span&gt;&lt;span style=&quot;white-space: pre;&quot;&gt;	&lt;/span&gt;&lt;span style=&quot;white-space: pre;&quot;&gt;	&lt;/span&gt;&lt;span style=&quot;white-space: pre;&quot;&gt;	&lt;/span&gt;&lt;span style=&quot;white-space: pre;&quot;&gt;	&lt;/span&gt;&lt;span style=&quot;white-space: pre;&quot;&gt;	&lt;/span&gt;&lt;span style=&quot;white-space: pre;&quot;&gt;	&lt;/span&gt;&lt;span style=&quot;white-space: pre;&quot;&gt;	&lt;/span&gt;&amp;nbsp; &amp;nbsp; &amp;nbsp; &amp;nbsp;&lt;span style=&quot;white-space: pre;&quot;&gt;	&lt;/span&gt;&lt;span style=&quot;white-space: pre;&quot;&gt;	&lt;/span&gt;&lt;span style=&quot;white-space: pre;&quot;&gt;	&lt;/span&gt;&lt;span style=&quot;white-space: pre;&quot;&gt;	&lt;/span&gt;&amp;nbsp; &amp;nbsp; Description:&lt;span style=&quot;white-space: pre;&quot;&gt;	&lt;/span&gt;&lt;span style=&quot;white-space: pre;&quot;&gt;	&lt;/span&gt;&lt;span style=&quot;white-space: pre;&quot;&gt;	&lt;/span&gt;&lt;span style=&quot;white-space: pre;&quot;&gt;	&lt;/span&gt;&lt;span style=&quot;white-space: pre;&quot;&gt;	&lt;/span&gt;&lt;span style=&quot;white-space: pre;&quot;&gt;	&lt;/span&gt;&lt;span style=&quot;white-space: pre;&quot;&gt;	&lt;/span&gt;&lt;span style=&quot;white-space: pre;&quot;&gt;	&lt;/span&gt;&lt;span style=&quot;white-space: pre;&quot;&gt;	&lt;/span&gt;&amp;nbsp; &amp;nbsp; Category:" style="rounded=0;whiteSpace=wrap;html=1;align=left;fillColor=#f5f5f5;fontColor=#333333;strokeColor=default;" vertex="1" parent="1">
          <mxGeometry x="9" y="1087" width="881" height="60" as="geometry" />
        </mxCell>
        <mxCell id="ZbwSbqGi6mQ39VCojpHq-46" value="" style="endArrow=none;html=1;rounded=0;exitX=0;exitY=0;exitDx=0;exitDy=0;" edge="1" parent="1" source="ZbwSbqGi6mQ39VCojpHq-45">
          <mxGeometry width="50" height="50" relative="1" as="geometry">
            <mxPoint x="-41" y="1327" as="sourcePoint" />
            <mxPoint x="9" y="1277" as="targetPoint" />
          </mxGeometry>
        </mxCell>
        <mxCell id="ZbwSbqGi6mQ39VCojpHq-47" value="" style="endArrow=none;html=1;rounded=0;entryX=1;entryY=1;entryDx=0;entryDy=0;exitX=1;exitY=0;exitDx=0;exitDy=0;" edge="1" parent="1" source="ZbwSbqGi6mQ39VCojpHq-45" target="ZbwSbqGi6mQ39VCojpHq-44">
          <mxGeometry width="50" height="50" relative="1" as="geometry">
            <mxPoint x="396" y="1411" as="sourcePoint" />
            <mxPoint x="446" y="1361" as="targetPoint" />
          </mxGeometry>
        </mxCell>
        <mxCell id="ZbwSbqGi6mQ39VCojpHq-48" value="" style="endArrow=none;html=1;rounded=0;entryX=1;entryY=1;entryDx=0;entryDy=0;exitX=0;exitY=1;exitDx=0;exitDy=0;" edge="1" parent="1" source="ZbwSbqGi6mQ39VCojpHq-42" target="ZbwSbqGi6mQ39VCojpHq-44">
          <mxGeometry width="50" height="50" relative="1" as="geometry">
            <mxPoint x="561" y="1452" as="sourcePoint" />
            <mxPoint x="611" y="1402" as="targetPoint" />
          </mxGeometry>
        </mxCell>
        <mxCell id="ZbwSbqGi6mQ39VCojpHq-49" value="" style="endArrow=none;html=1;rounded=0;entryX=1;entryY=0;entryDx=0;entryDy=0;exitX=0;exitY=0;exitDx=0;exitDy=0;" edge="1" parent="1" source="ZbwSbqGi6mQ39VCojpHq-45" target="ZbwSbqGi6mQ39VCojpHq-45">
          <mxGeometry width="50" height="50" relative="1" as="geometry">
            <mxPoint x="428" y="1418" as="sourcePoint" />
            <mxPoint x="478" y="1368" as="targetPoint" />
          </mxGeometry>
        </mxCell>
      </root>
    </mxGraphModel>
  </diagram>
</mxfile>
